<svg xmlns="http://www.w3.org/2000/svg" viewBox="0 0 240 240"><g transform="translate(1 1)" fill="none" fill-rule="evenodd"><circle fill="#DBD9DB" cx="119" cy="119" r="119"/><path d="M45 212.929v-23.931c0-27.614 22.386-50 50-50h5v-2.274c-10.77-6.346-17.998-18.064-17.998-31.47V85.501C82.002 65.342 98.345 49 118.504 49c20.16 0 36.503 16.343 36.503 36.502v19.751c0 13.513-7.342 25.31-18.255 31.621v2.124h5.257c27.614 0 50 22.386 50 50v23.656c-20.201 16.135-45.813 25.782-73.678 25.782-27.705 0-53.184-9.537-73.331-25.507Z" fill="#ADACAD"/></g></svg>