<?xml version="1.0" encoding="UTF-8" standalone="no"?>
<svg width="126px" height="74px" viewBox="0 0 126 74" version="1.1" xmlns="http://www.w3.org/2000/svg" xmlns:xlink="http://www.w3.org/1999/xlink" xmlns:sketch="http://www.bohemiancoding.com/sketch/ns">
    <!-- Generator: Sketch 3.2.2 (9983) - http://www.bohemiancoding.com/sketch -->
    <title>Imported Layers</title>
    <desc>Created with Sketch.</desc>
    <defs></defs>
    <g id="Page-1" stroke="none" stroke-width="1" fill="none" fill-rule="evenodd" sketch:type="MSPage">
        <g id="Imported-Layers" sketch:type="MSLayerGroup" fill="#C1C5C5">
            <path d="M39.0048099,24.1813239 C41.3352893,24.1813239 43.6595207,24.4877465 45.9129421,25.0922535 L46.7199669,22.0592958 C44.2041322,21.3839155 41.6081157,21.0410141 39.0048099,21.0410141 C23.5422149,21.0410141 10.7953884,32.917493 9.3333719,48.0593521 L3.17395041,40.0016901 L0.692479339,41.9131831 L9.2542314,53.1132394 C9.56246281,53.5155493 10.0268926,53.7271268 10.4954876,53.7271268 C10.8287107,53.7271268 11.1629752,53.6218592 11.4472562,53.4029859 L22.6050248,44.8096056 L20.7014876,42.3186197 L12.4208926,48.6951268 C13.5746777,34.9853239 25.0531736,24.1813239 39.0048099,24.1813239" id="Fill-1" sketch:type="MSShapeGroup"></path>
            <path d="M71.5888264,34.5882254 C72.2073719,34.7549859 72.8446612,34.8394085 73.4798678,34.8394085 C76.7725289,34.8394085 79.667405,32.6069014 80.5202479,29.4123944 C81.5615702,25.5133239 79.2487934,21.4912676 75.3636198,20.4469296 C74.7450744,20.280169 74.1088264,20.1957465 73.4725785,20.1957465 C70.1809587,20.1957465 67.2850413,22.4272113 66.4321983,25.6227606 C65.9281983,27.5113239 66.1874876,29.4843099 67.161124,31.1779718 C68.1347603,32.8705915 69.7081983,34.0816901 71.5888264,34.5882254 L71.5888264,34.5882254 Z M69.4541157,26.4357183 C69.9414545,24.6096901 71.5940331,23.3360563 73.4725785,23.3360563 C73.836,23.3360563 74.1994215,23.384 74.5545124,23.4788451 C76.7725289,24.0760563 78.0939669,26.3731831 77.4993719,28.5994366 C77.0120331,30.4244225 75.3594545,31.6990986 73.4798678,31.6990986 C73.1174876,31.6990986 72.7540661,31.6501127 72.3989752,31.5552676 C71.3243306,31.2665634 70.4267107,30.574507 69.8706446,29.6072958 C69.3135372,28.6411268 69.1667107,27.5144507 69.4541157,26.4357183 L69.4541157,26.4357183 Z" id="Fill-2" sketch:type="MSShapeGroup"></path>
            <path d="M125.44081,19.0774085 C125.233587,18.7167887 124.892033,18.4541408 124.491124,18.3457465 L59.7229587,0.92656338 C59.3230909,0.819211268 58.8951074,0.875492958 58.5368926,1.08290141 C58.176595,1.29135211 57.9152231,1.63425352 57.8079669,2.03656338 L43.8209256,54.4348169 C43.5970413,55.2717465 44.0916694,56.1326479 44.9268099,56.3567324 L109.693934,73.7769577 C109.829306,73.8134366 109.965719,73.8311549 110.10005,73.8311549 C110.790446,73.8311549 111.422529,73.3683944 111.609967,72.6669577 L125.597008,20.2687042 C125.704264,19.8663944 125.649074,19.4380282 125.44081,19.0774085 L125.44081,19.0774085 Z M108.993124,70.3385634 L47.246876,53.7302535 L60.4248099,4.36495775 L122.171058,20.9722254 L108.993124,70.3385634 L108.993124,70.3385634 Z" id="Fill-3" sketch:type="MSShapeGroup"></path>
            <path d="M54.1206446,51.0287324 L55.7201157,51.4591831 L104.385273,64.5478028 C104.520645,64.5842817 104.657058,64.602 104.791388,64.602 C105.481785,64.602 106.113868,64.1392394 106.301306,63.4378028 L116.402132,25.5977465 C116.626017,24.7597746 116.130347,23.8988732 115.296248,23.6747887 L65.0316198,10.1557183 C64.6317521,10.0483662 64.2037686,10.1046479 63.8455537,10.3120563 C63.4862975,10.520507 63.2238843,10.8634085 63.1166281,11.2657183 L53.0158017,49.1057746 C52.7919174,49.9437465 53.2865455,50.8046479 54.1206446,51.0287324 L54.1206446,51.0287324 Z M103.684463,61.1094085 L63.823686,50.3877465 L85.4727769,37.8421408 L88.7341983,43.512 C89.1663471,44.2634648 90.1233223,44.5229859 90.8709917,44.0862817 L101.443537,37.9599155 L107.32076,47.4871549 L103.684463,61.1094085 L103.684463,61.1094085 Z M65.7334711,13.5941127 L112.976182,26.3012676 L108.431851,43.3243944 L103.30438,35.0124225 C102.859736,34.2911831 101.924628,34.0545915 101.192579,34.479831 L90.6606446,40.5832676 L87.3992231,34.9123662 C86.9681157,34.1619437 86.0121818,33.904507 85.2634711,34.3380845 L59.5511405,49.2391831 L56.4417521,48.4022535 L65.7334711,13.5941127 L65.7334711,13.5941127 Z" id="Fill-4" sketch:type="MSShapeGroup"></path>
        </g>
    </g>
</svg>